<svg width="315" height="276" viewBox="0 0 315 276" fill="none" xmlns="http://www.w3.org/2000/svg">
<g clip-path="url(#clip0_3_32)">
<rect width="315" height="276" fill="white"/>
<path d="M126.192 156.288C124.512 156.288 123.064 155.928 121.848 155.208C120.648 154.472 119.72 153.456 119.064 152.16C118.424 150.848 118.104 149.336 118.104 147.624C118.104 145.912 118.424 144.4 119.064 143.088C119.72 141.776 120.648 140.752 121.848 140.016C123.064 139.28 124.512 138.912 126.192 138.912C128.224 138.912 129.888 139.416 131.184 140.424C132.48 141.432 133.288 142.856 133.608 144.696H130.08C129.872 143.8 129.432 143.104 128.76 142.608C128.104 142.096 127.24 141.84 126.168 141.84C125.176 141.84 124.32 142.08 123.6 142.56C122.896 143.024 122.352 143.688 121.968 144.552C121.584 145.4 121.392 146.424 121.392 147.624C121.392 148.808 121.584 149.832 121.968 150.696C122.352 151.56 122.896 152.224 123.6 152.688C124.32 153.152 125.176 153.384 126.168 153.384C127.24 153.384 128.104 153.152 128.76 152.688C129.416 152.208 129.848 151.544 130.056 150.696H133.608C133.288 152.44 132.48 153.808 131.184 154.8C129.888 155.792 128.224 156.288 126.192 156.288ZM144.127 156.288C142.495 156.288 141.055 155.92 139.807 155.184C138.559 154.448 137.583 153.432 136.879 152.136C136.175 150.824 135.823 149.312 135.823 147.6C135.823 145.888 136.175 144.384 136.879 143.088C137.583 141.776 138.559 140.752 139.807 140.016C141.055 139.28 142.495 138.912 144.127 138.912C145.775 138.912 147.223 139.28 148.471 140.016C149.719 140.752 150.687 141.776 151.375 143.088C152.079 144.384 152.431 145.888 152.431 147.6C152.431 149.312 152.079 150.824 151.375 152.136C150.687 153.432 149.719 154.448 148.471 155.184C147.223 155.92 145.775 156.288 144.127 156.288ZM144.127 153.384C145.151 153.384 146.031 153.152 146.767 152.688C147.519 152.208 148.103 151.536 148.519 150.672C148.935 149.808 149.143 148.784 149.143 147.6C149.143 146.4 148.935 145.376 148.519 144.528C148.103 143.664 147.519 143 146.767 142.536C146.031 142.072 145.151 141.84 144.127 141.84C143.119 141.84 142.239 142.072 141.487 142.536C140.735 143 140.151 143.664 139.735 144.528C139.319 145.376 139.111 146.4 139.111 147.6C139.111 148.784 139.319 149.808 139.735 150.672C140.151 151.536 140.735 152.208 141.487 152.688C142.239 153.152 143.119 153.384 144.127 153.384ZM155.195 156V139.2H159.059L164.195 149.688L169.283 139.2H173.147V156H169.907V144.72L165.467 153.648H162.899L158.435 144.72V156H155.195ZM176.453 156V139.2H182.741C184.101 139.2 185.229 139.432 186.125 139.896C187.021 140.36 187.685 140.984 188.117 141.768C188.549 142.552 188.765 143.448 188.765 144.456C188.765 145.384 188.557 146.24 188.141 147.024C187.725 147.808 187.069 148.448 186.173 148.944C185.277 149.424 184.133 149.664 182.741 149.664H179.693V156H176.453ZM179.693 147.048H182.549C183.589 147.048 184.333 146.816 184.781 146.352C185.245 145.872 185.477 145.24 185.477 144.456C185.477 143.624 185.245 142.984 184.781 142.536C184.333 142.072 183.589 141.84 182.549 141.84H179.693V147.048ZM191.195 156V139.2H197.459C198.819 139.2 199.939 139.432 200.819 139.896C201.699 140.36 202.355 140.984 202.787 141.768C203.219 142.536 203.435 143.392 203.435 144.336C203.435 145.232 203.227 146.072 202.811 146.856C202.395 147.624 201.739 148.248 200.843 148.728C199.963 149.192 198.827 149.424 197.435 149.424H194.435V156H191.195ZM199.907 156L196.451 148.608H199.955L203.603 156H199.907ZM194.435 147.072H197.267C198.243 147.072 198.963 146.832 199.427 146.352C199.891 145.872 200.123 145.24 200.123 144.456C200.123 143.672 199.891 143.056 199.427 142.608C198.979 142.144 198.259 141.912 197.267 141.912H194.435V147.072ZM205.208 156L211.352 139.2H215.024L221.144 156H217.712L213.176 142.896L208.616 156H205.208ZM207.92 152.184L208.784 149.664H217.328L218.168 152.184H207.92ZM229.135 156.288C227.919 156.288 226.831 156.08 225.871 155.664C224.927 155.248 224.175 154.64 223.615 153.84C223.071 153.04 222.791 152.072 222.775 150.936H226.207C226.223 151.432 226.351 151.88 226.591 152.28C226.831 152.68 227.159 153 227.575 153.24C228.007 153.464 228.519 153.576 229.111 153.576C229.623 153.576 230.063 153.496 230.431 153.336C230.815 153.16 231.111 152.92 231.319 152.616C231.527 152.312 231.631 151.952 231.631 151.536C231.631 151.056 231.511 150.656 231.271 150.336C231.047 150.016 230.727 149.744 230.311 149.52C229.911 149.296 229.439 149.096 228.895 148.92C228.367 148.728 227.807 148.528 227.215 148.32C225.887 147.888 224.871 147.312 224.167 146.592C223.479 145.872 223.135 144.92 223.135 143.736C223.135 142.728 223.375 141.864 223.855 141.144C224.351 140.424 225.031 139.872 225.895 139.488C226.759 139.104 227.743 138.912 228.847 138.912C229.983 138.912 230.975 139.112 231.823 139.512C232.687 139.896 233.367 140.456 233.863 141.192C234.375 141.928 234.639 142.792 234.655 143.784H231.199C231.183 143.416 231.071 143.072 230.863 142.752C230.671 142.416 230.399 142.152 230.047 141.96C229.695 141.752 229.279 141.648 228.799 141.648C228.383 141.632 227.999 141.696 227.647 141.84C227.311 141.984 227.039 142.2 226.831 142.488C226.639 142.76 226.543 143.104 226.543 143.52C226.543 143.92 226.639 144.256 226.831 144.528C227.039 144.8 227.319 145.04 227.671 145.248C228.023 145.44 228.439 145.624 228.919 145.8C229.399 145.96 229.919 146.128 230.479 146.304C231.311 146.592 232.079 146.936 232.783 147.336C233.487 147.72 234.047 148.224 234.463 148.848C234.879 149.472 235.087 150.296 235.087 151.32C235.087 152.2 234.855 153.016 234.391 153.768C233.927 154.52 233.255 155.128 232.375 155.592C231.511 156.056 230.431 156.288 229.135 156.288ZM236.972 156L243.14 139.2H244.292L250.388 156H249.236L243.692 140.592L238.1 156H236.972ZM239.588 150.672L239.948 149.76H247.436L247.796 150.672H239.588ZM253.262 156V139.2H258.158C259.454 139.2 260.51 139.408 261.326 139.824C262.158 140.224 262.766 140.776 263.15 141.48C263.534 142.184 263.726 142.992 263.726 143.904C263.726 144.816 263.534 145.632 263.15 146.352C262.766 147.056 262.166 147.608 261.35 148.008C260.534 148.408 259.47 148.608 258.158 148.608H254.342V156H253.262ZM254.342 147.672H258.182C259.67 147.672 260.774 147.352 261.494 146.712C262.23 146.072 262.598 145.136 262.598 143.904C262.598 142.672 262.23 141.736 261.494 141.096C260.774 140.456 259.67 140.136 258.182 140.136H254.342V147.672ZM266.481 156V139.2H271.377C272.673 139.2 273.729 139.408 274.545 139.824C275.377 140.224 275.985 140.776 276.369 141.48C276.753 142.184 276.945 142.992 276.945 143.904C276.945 144.816 276.753 145.632 276.369 146.352C275.985 147.056 275.385 147.608 274.569 148.008C273.753 148.408 272.689 148.608 271.377 148.608H267.561V156H266.481ZM267.561 147.672H271.401C272.889 147.672 273.993 147.352 274.713 146.712C275.449 146.072 275.817 145.136 275.817 143.904C275.817 142.672 275.449 141.736 274.713 141.096C273.993 140.456 272.889 140.136 271.401 140.136H267.561V147.672Z" fill="black"/>
<path d="M73.9595 171.387C76.2234 171.387 78.0586 169.552 78.0586 167.288C78.0586 165.024 76.2234 163.189 73.9595 163.189C71.6956 163.189 69.8604 165.024 69.8604 167.288C69.8604 169.552 71.6956 171.387 73.9595 171.387Z" fill="#CC0002"/>
<path d="M102.653 171.387C104.917 171.387 106.752 169.552 106.752 167.288C106.752 165.024 104.917 163.189 102.653 163.189C100.389 163.189 98.5541 165.024 98.5541 167.288C98.5541 169.552 100.389 171.387 102.653 171.387Z" fill="#CC0002"/>
<path d="M109.929 129.472C109.641 129.119 109.278 128.836 108.867 128.641C108.456 128.447 108.007 128.346 107.552 128.347H68.5653L67.7801 123.892C67.6963 123.417 67.4481 122.987 67.0789 122.677C66.7097 122.368 66.2432 122.198 65.7613 122.198H57.5631C57.0195 122.198 56.4982 122.414 56.1138 122.798C55.7295 123.183 55.5135 123.704 55.5135 124.248C55.5135 124.791 55.7295 125.313 56.1138 125.697C56.4982 126.081 57.0195 126.297 57.5631 126.297H64.0422L69.8911 159.446C69.9748 159.921 70.1355 160.461 70.5047 160.77C70.8739 161.08 71.428 161.14 71.9099 161.14H104.703C105.246 161.14 105.768 160.924 106.152 160.539C106.536 160.155 106.752 159.634 106.752 159.09C106.752 158.546 106.536 158.025 106.152 157.641C105.768 157.256 105.246 157.04 104.703 157.04H73.629L72.9065 152.941H103.862C104.573 152.94 105.262 152.694 105.812 152.244C106.362 151.793 106.739 151.167 106.88 150.47L110.57 132.024C110.658 131.578 110.647 131.117 110.536 130.676C110.426 130.234 110.218 129.823 109.929 129.472Z" fill="#CC0002"/>
<path d="M37 134.18H59.3423" stroke="#CC0002" stroke-width="4.6" stroke-miterlimit="16" stroke-linecap="round"/>
<path d="M42.7658 147.153H59.3424" stroke="#CC0002" stroke-width="4.6" stroke-miterlimit="16" stroke-linecap="round"/>
<path d="M48.5316 159.405H59.3424" stroke="#CC0002" stroke-width="4.6" stroke-miterlimit="16" stroke-linecap="round"/>
</g>
<defs>
<clipPath id="clip0_3_32">
<rect width="315" height="276" fill="white"/>
</clipPath>
</defs>
</svg>
